<?xml version="1.0" standalone="no"?><!DOCTYPE svg PUBLIC "-//W3C//DTD SVG 1.1//EN"
  "http://www.w3.org/Graphics/SVG/1.1/DTD/svg11.dtd">
<svg t="1575338509895" class="icon" viewBox="0 0 1024 1024" version="1.1" xmlns="http://www.w3.org/2000/svg" p-id="4391"
     width="20" height="20">
  <defs>
    <style type="text/css"></style>
  </defs>
  <path d="M711.5 559c2.8 0 5-2.2 5-5v-28.7c0-2.8-2.2-5-5-5s-5 2.2-5 5V554c0 2.8 2.2 5 5 5z" fill="#2c2c2c"
        p-id="4392"></path>
  <path
    d="M731.5 531c-2-1.9-5.2-1.8-7.1 0.2-1.9 2-1.8 5.2 0.2 7.1 3.4 3.2 5.3 7.4 5.3 11.9s-1.9 8.7-5.3 11.9c-7.2 6.8-19 6.8-26.2 0-3.4-3.2-5.3-7.4-5.3-11.9s1.9-8.7 5.3-11.9c2-1.9 2.1-5.1 0.2-7.1-1.9-2-5.1-2.1-7.1-0.2-5.4 5.1-8.4 11.9-8.4 19.2 0 7.3 3 14.1 8.4 19.2 5.5 5.2 12.7 7.7 19.9 7.7 7.2 0 14.4-2.6 19.9-7.7 5.4-5.1 8.4-11.9 8.4-19.2 0.2-7.3-2.8-14.1-8.2-19.2z"
    fill="#2c2c2c" p-id="4393"></path>
  <path
    d="M742.5 478.9H701v-42.5c0-5.5-4.5-10-10-10s-10 4.5-10 10v42.5H324.5V334.3c0-5.5-4.5-10-10-10s-10 4.5-10 10v144.6h-49.4c-25.4 0-46 20.6-46 46v189.7c0 25.4 20.6 46 46 46h487.4c25.4 0 46-20.6 46-46V524.9c0-25.4-20.7-46-46-46z m26 235.6c0 14.3-11.7 26-26 26H255.1c-14.3 0-26-11.7-26-26V524.9c0-14.3 11.7-26 26-26h487.4c14.3 0 26 11.7 26 26v189.6z"
    fill="#2c2c2c" p-id="4394"></path>
  <path d="M298.1 677.4m-23.4 0a23.4 23.4 0 1 0 46.8 0 23.4 23.4 0 1 0-46.8 0Z" fill="#2c2c2c" p-id="4395"></path>
  <path d="M374.4 677.4a23.4 25.5 0 1 0 46.8 0 23.4 25.5 0 1 0-46.8 0Z" fill="#2c2c2c" p-id="4396"></path>
  <path d="M493.2 677.4m-23.4 0a23.4 23.4 0 1 0 46.8 0 23.4 23.4 0 1 0-46.8 0Z" fill="#2c2c2c" p-id="4397"></path>
  <path
    d="M630 399.1c-3.9 3.9-3.9 10.2 0 14.1 3.9 3.9 10.2 3.9 14.1 0 25.8-25.8 67.8-25.8 93.7 0 2 2 4.5 2.9 7.1 2.9s5.1-1 7.1-2.9c3.9-3.9 3.9-10.2 0-14.1-33.7-33.6-88.4-33.6-122 0z"
    fill="#2c2c2c" p-id="4398"></path>
  <path
    d="M776.3 372c2.6 0 5.1-1 7.1-2.9 3.9-3.9 3.9-10.2 0-14.1-51-51-133.9-51-184.8 0-3.9 3.9-3.9 10.2 0 14.1 3.9 3.9 10.2 3.9 14.1 0 43.2-43.2 113.4-43.2 156.5 0 2 1.9 4.5 2.9 7.1 2.9z"
    fill="#2c2c2c" p-id="4399"></path>
  <path
    d="M812 313.6c-66.7-66.7-175.3-66.7-242 0-3.9 3.9-3.9 10.2 0 14.1 3.9 3.9 10.2 3.9 14.1 0 58.9-58.9 154.8-58.9 213.8 0 2 2 4.5 2.9 7.1 2.9s5.1-1 7.1-2.9c3.8-3.9 3.8-10.2-0.1-14.1z"
    fill="#2c2c2c" p-id="4400"></path>
</svg>
