<?xml version="1.0" standalone="no"?><!DOCTYPE svg PUBLIC "-//W3C//DTD SVG 1.1//EN"
  "http://www.w3.org/Graphics/SVG/1.1/DTD/svg11.dtd">
<svg t="1575342121326" class="icon" viewBox="0 0 1024 1024" version="1.1" xmlns="http://www.w3.org/2000/svg" p-id="2498"
     width="20" height="20">
  <defs>
    <style type="text/css"></style>
  </defs>
  <path
    d="M906.669685 643.84582C910.089421 640.29061 914.85509 628.47449 914.85509 623.550902L914.85509 273.357336C914.85509 265.084187 908.117914 258.350499 899.836717 258.350499L124.163282 258.350499C115.890756 258.350499 109.14491 265.091808 109.14491 273.271439L109.14491 750.728561C109.14491 758.974842 115.815144 765.649501 124.024351 765.649501L778.705807 765.649501C783.046573 765.649501 793.97845 761.00134 796.986757 757.873857L906.669685 643.84582ZM829.246717 788.904531C817.781507 800.823938 795.193598 810.411178 778.705807 810.411178L124.024351 810.411178C91.088274 810.411178 64.383234 783.69036 64.383234 750.728561L64.383234 273.271439C64.383234 240.392484 91.147673 213.588822 124.163282 213.588822L899.836717 213.588822C932.824205 213.588822 959.616766 240.348097 959.616766 273.357336L959.616766 623.550902C959.616766 640.067821 950.354826 662.998701 938.929645 674.876494L829.246717 788.904531Z"
    p-id="2499" fill="#707070"></path>
  <path
    d="M810.411178 437.397206C818.651574 437.397206 825.331737 430.717043 825.331737 422.476647 825.331737 414.23625 818.651574 407.556088 810.411178 407.556088L691.046707 407.556088C682.80631 407.556088 676.126148 414.23625 676.126148 422.476647 676.126148 430.717043 682.80631 437.397206 691.046707 437.397206L810.411178 437.397206Z"
    p-id="2500" fill="#707070"></path>
  <path d="M392.635529 437.397206 422.476647 437.397206 422.476647 362.794411 392.635529 362.794411Z" p-id="2501"
        fill="#707070"></path>
  <path d="M392.635529 661.205589 422.476647 661.205589 422.476647 556.761677 392.635529 556.761677Z" p-id="2502"
        fill="#707070"></path>
  <path d="M273.271058 661.205589 303.112176 661.205589 303.112176 586.602794 273.271058 586.602794Z" p-id="2503"
        fill="#707070"></path>
  <path d="M273.271058 437.397206 303.112176 437.397206 303.112176 362.794411 273.271058 362.794411Z" p-id="2504"
        fill="#707070"></path>
  <path
    d="M810.411178 512C818.651574 512 825.331737 505.319838 825.331737 497.079441 825.331737 488.839044 818.651574 482.158882 810.411178 482.158882L691.046707 482.158882C682.80631 482.158882 676.126148 488.839044 676.126148 497.079441 676.126148 505.319838 682.80631 512 691.046707 512L810.411178 512Z"
    p-id="2505" fill="#707070"></path>
  <path
    d="M810.411178 362.794411C818.651574 362.794411 825.331737 356.114249 825.331737 347.873852 825.331737 339.633456 818.651574 332.953293 810.411178 332.953293L691.046707 332.953293C682.80631 332.953293 676.126148 339.633456 676.126148 347.873852 676.126148 356.114249 682.80631 362.794411 691.046707 362.794411L810.411178 362.794411Z"
    p-id="2506" fill="#707070"></path>
  <path d="M497.079441 467.238323 497.079441 437.397206 198.668263 437.397206 198.668263 467.238323Z" p-id="2507"
        fill="#707070"></path>
  <path d="M392.617645 586.602794 392.617645 556.761677 198.668263 556.761677 198.668263 586.602794Z" p-id="2508"
        fill="#707070"></path>
  <path
    d="M198.668263 601.60834C198.668263 634.527453 225.347924 661.205589 258.265512 661.205589L437.482192 661.205589C470.401305 661.205589 497.079441 634.525928 497.079441 601.60834L497.079441 422.39166C497.079441 389.472547 470.39978 362.794411 437.482192 362.794411L258.265512 362.794411C225.3464 362.794411 198.668263 389.474072 198.668263 422.39166L198.668263 601.60834ZM258.265512 332.953293 437.482192 332.953293C486.877638 332.953293 526.920559 372.988817 526.920559 422.39166L526.920559 601.60834C526.920559 651.003785 486.885036 691.046707 437.482192 691.046707L258.265512 691.046707C208.870067 691.046707 168.827146 651.011183 168.827146 601.60834L168.827146 422.39166C168.827146 372.996215 208.862669 332.953293 258.265512 332.953293Z"
    p-id="2509" fill="#707070"></path>
</svg>
